<?xml version="1.0" encoding="UTF-8" standalone="no"?>
<svg
   xmlns:dc="http://purl.org/dc/elements/1.1/"
   xmlns:cc="http://creativecommons.org/ns#"
   xmlns:rdf="http://www.w3.org/1999/02/22-rdf-syntax-ns#"
   xmlns:svg="http://www.w3.org/2000/svg"
   xmlns="http://www.w3.org/2000/svg"
   id="svg3684"
   version="1.1"
   viewBox="0 0 33.866667 33.866668"
   height="128"
   width="128"
   fill="context-fill"
   fill-opacity="context-fill-opacity">
  <defs
     id="defs3678" />
  <metadata
     id="metadata3681">
    <rdf:RDF>
      <cc:Work
         rdf:about="">
        <dc:format>image/svg+xml</dc:format>
        <dc:type
           rdf:resource="http://purl.org/dc/dcmitype/StillImage" />
        <dc:title></dc:title>
      </cc:Work>
    </rdf:RDF>
  </metadata>
  <g
     transform="translate(0,-263.13333)"
     id="layer1">
    <path
       id="rect9"
       d="m -32.400391,269.41992 a 1.323049,1.323049 0 0 0 -1.072265,0.54688 l -4.845703,6.68359 -4.847657,6.68359 a 1.323049,1.323049 0 0 0 -0.251953,0.7754 v 17.82226 17.82227 a 1.323049,1.323049 0 0 0 1.324219,1.32226 H -5.9667969 30.162109 a 1.323049,1.323049 0 0 0 1.324219,-1.32226 v -18.07618 -18.07421 a 1.323049,1.323049 0 0 0 -1.3125,-1.32422 l -9.693359,-0.084 -8.966797,-0.0781 -3.5800782,-5.73047 -3.9667969,-6.34375 A 1.323049,1.323049 0 0 0 2.8457031,269.41992 H -14.777344 Z m 0.673829,2.64649 h 16.949218 16.8906252 l 3.5761719,5.72265 3.9648438,6.34571 a 1.323049,1.323049 0 0 0 1.1113281,0.62109 l 9.691406,0.0859 8.382813,0.0723 v 16.76367 16.75391 H -5.9667969 -40.771484 v -16.5 -17.39258 l 4.59375,-6.33594 z"
       style="shape-padding:0;clip-rule:nonzero;display:inline;overflow:visible;isolation:auto;mix-blend-mode:normal;vector-effect:none;shape-rendering:auto;text-rendering:auto;enable-background:accumulate" />
  </g>
</svg>
