<svg xmlns="http://www.w3.org/2000/svg" viewBox="0 0 33.867 33.867" height="128" width="128"><g font-weight="400"><path d="M-32.4 6.287a1.323 1.323 0 0 0-1.073.546l-4.845 6.684-4.848 6.684a1.323 1.323 0 0 0-.252.775v35.645a1.323 1.323 0 0 0 1.324 1.322h72.257a1.323 1.323 0 0 0 1.323-1.322V20.47a1.323 1.323 0 0 0-1.312-1.324l-9.694-.084-8.966-.078-3.58-5.73L3.967 6.91a1.323 1.323 0 0 0-1.121-.623h-17.623zm.673 2.646h33.84l3.576 5.723L9.654 21a1.323 1.323 0 0 0 1.112.622l9.691.085 8.383.073v33.517h-69.611V21.406l4.593-6.336z" style="line-height:normal;font-variant-ligatures:normal;font-variant-position:normal;font-variant-caps:normal;font-variant-numeric:normal;font-variant-alternates:normal;font-feature-settings:normal;text-indent:0;text-align:start;text-decoration-line:none;text-decoration-style:solid;text-decoration-color:#000;text-transform:none;text-orientation:mixed;shape-padding:0;isolation:auto;mix-blend-mode:normal" color="#000" font-family="sans-serif" white-space="normal" overflow="visible" paint-order="fill markers stroke"/><text y="280.067" x="16.553" style="line-height:4.02790976px;-inkscape-font-specification:Lato" font-size="14.098" font-family="Lato" letter-spacing="0" word-spacing="0" stroke-width=".265" transform="translate(0 -263.133)"><tspan style="-inkscape-font-specification:Arial" y="280.067" x="16.553" font-family="Arial">#</tspan></text></g></svg>